Coordinates
version=1
nRows=24
nColumns=24
inDegrees=yes

Units are S.I. units (second, meters, Newtons, ...)
Angles are in degrees.

endheader
time	pelvis_tilt	pelvis_list	pelvis_rotation	pelvis_tx	pelvis_ty	pelvis_tz	hip_flexion_r	hip_adduction_r	hip_rotation_r	knee_angle_r	ankle_angle_r	subtalar_angle_r	mtp_angle_r	hip_flexion_l	hip_adduction_l	hip_rotation_l	knee_angle_l	ankle_angle_l	subtalar_angle_l	mtp_angle_l	lumbar_extension	lumbar_bending	lumbar_rotation
      3.38000000	     68.23177664	     -1.66385781	      4.23306850	      0.65826742	      1.01799903	     -0.20770147	    -11.17528396	     -9.46879725	      3.88858323	    -51.74689205	    -13.79212476	     27.04437101	     66.55259263	    -11.88356001	    -14.78152191	      6.23656262	    -53.86090645	-307176.88980905	 105441.55838057	-102708.73782862	      0.00000000	      0.00000000	      0.00000000
      3.39000000	     67.93816120	     -1.57206027	      4.33703564	      0.65666310	      1.01796215	     -0.20828326	    -11.14548224	     -9.80484803	      3.97948293	    -52.42929652	    -13.83801559	     26.80385724	     66.75476924	    -11.78956929	    -14.52716127	      6.69655826	    -54.79176914	-341656.32007592	  90433.69973137	 -94260.31287670	      0.00000000	      0.00000000	      0.00000000
      3.40000000	     67.81960224	     -1.54455098	      4.25454933	      0.65683333	      1.01745483	     -0.20807481	    -11.11496354	    -10.18065561	      4.16890074	    -53.15898023	    -13.88031908	     26.55625415	     66.95416862	    -11.65459692	    -14.54952207	      7.44852367	    -55.53800890	-377370.94549313	  74710.96120721	 -85407.34273266	      0.00000000	      0.00000000	      0.00000000
      3.41000000	     67.92671043	     -1.62837838	      4.06480350	      0.65888833	      1.01729057	     -0.20774024	    -11.09926830	    -10.52333921	      4.44497546	    -53.93029328	    -13.91904032	     26.30281730	     67.15294461	    -11.44749512	    -14.76684969	      8.22056132	    -55.99044786	-414337.69186833	  58263.68769399	 -76149.24681044	      0.00000000	      0.00000000	      0.00000000
      3.42000000	     68.07206938	     -1.76346928	      3.88587658	      0.66028367	      1.01735209	     -0.20795629	    -11.06735531	    -10.78030320	      4.78124304	    -54.70306567	    -13.95355461	     26.04577395	     67.35168792	    -11.38651482	    -15.11486012	      8.77099275	    -56.28719671	-452573.55344758	  41083.04719762	 -66484.96057181	      0.00000000	      0.00000000	      0.00000000
      3.43000000	     68.06203567	     -1.88687576	      3.79013087	      0.65938957	      1.01738339	     -0.20790404	    -10.98747341	    -10.95552980	      5.15140969	    -55.43625636	    -13.98340529	     25.78733111	     67.54988812	    -11.68358306	    -15.53580578	      8.96127528	    -56.62200657	-492095.48625153	  23160.95082054	 -56412.83672530	      0.00000000	      0.00000000	      0.00000000
      3.44000000	     67.91450078	     -1.98403091	      3.73708706	      0.65767473	      1.01737756	     -0.20725034	    -10.87423191	    -11.09645101	      5.53493617	    -56.11863552	    -14.00944953	     25.52977328	     67.74653023	    -12.29103336	    -15.97226413	      8.77158156	    -57.03872867	-532920.28343868	   4489.94439114	 -45930.57139005	      0.00000000	      0.00000000	      0.00000000
      3.45000000	     67.80324203	     -2.07607230	      3.62964097	      0.65746940	      1.01721091	     -0.20705273	    -10.78386521	    -11.24806982	      5.91595788	    -56.76796014	    -14.03388759	     25.27609922	     67.94037384	    -12.94780712	    -16.35907998	      8.26319225	    -57.42822806	-575064.47577759	 -14936.90545288	 -35035.13536921	      0.00000000	      0.00000000	      0.00000000
      3.46000000	     67.84598324	     -2.19605527	      3.43853867	      0.65889360	      1.01694319	     -0.20779770	    -10.76263632	    -11.41430746	      6.28167874	    -57.40470156	    -14.05894460	     25.03026967	     68.12994365	    -13.42466577	    -16.60839259	      7.52617136	    -57.67442703	-618544.27598580	 -35126.11990683	 -23722.69373350	      0.00000000	      0.00000000	      0.00000000
      3.47000000	     67.99937508	     -2.35881864	      3.23358200	      0.66013094	      1.01698230	     -0.20852570	    -10.80160521	    -11.56193217	      6.62438430	    -58.03010914	    -14.08539144	     24.79650657	     68.31351139	    -13.67933002	    -16.64595260	      6.66750712	    -57.74711957	-663375.58389270	 -56083.91990856	 -11988.50285238	      0.00000000	      0.00000000	      0.00000000
      3.48000000	     68.13401699	     -2.53896100	      3.09192916	      0.66005559	      1.01738263	     -0.20833562	    -10.84050454	    -11.66279358	      6.94483477	    -58.62797100	    -14.11223555	     24.57809602	     68.48919426	    -13.80642430	    -16.48637705	      5.83045638	    -57.66654383	-709574.05586088	 -77816.34985010	    173.21767729	      0.00000000	      0.00000000	      0.00000000
      3.49000000	     68.15791617	     -2.68206368	      3.00859915	      0.65919827	      1.01762525	     -0.20755866	    -10.81331767	    -11.72966786	      7.25005537	    -59.18186847	    -14.13777853	     24.37688275	     68.65506765	    -13.89870555	    -16.25436428	      5.18323103	    -57.43629649	-757155.20782169	-100329.41249117	  12769.43446786	      0.00000000	      0.00000000	      0.00000000
      3.50000000	     68.07019756	     -2.74480823	      2.90692826	      0.65862145	      1.01747033	     -0.20717606	    -10.69173204	    -11.80979027	      7.54352898	    -59.68609656	    -14.16096278	     24.19397734	     68.80918561	    -13.96538537	    -16.10757051	      4.85292579	    -57.03882429	-806134.51671846	-123629.20846245	  25808.45770749	      0.00000000	      0.00000000	      0.00000000
      3.51000000	     67.92637764	     -2.73021968	      2.72790054	      0.65882557	      1.01732853	     -0.20759246	    -10.49330548	    -11.94693036	      7.81523601	    -60.14019057	    -14.18180454	     24.03086519	     68.94956811	    -13.95808883	    -16.12431685	      4.85030286	    -56.49052624	-856527.50477979	-147722.06528107	  39300.07159510	      0.00000000	      0.00000000	      0.00000000
      3.52000000	     67.77426149	     -2.68693957	      2.50431373	      0.65959228	      1.01755263	     -0.20801256	    -10.26077447	    -12.15092585	      8.04085384	    -60.53752320	    -14.20073953	     23.88971905	     69.07431916	    -13.84427462	    -16.25658472	      5.04826335	    -55.88637045	-908349.80389272	-172614.63028668	  53255.59405992	      0.00000000	      0.00000000	      0.00000000
      3.53000000	     67.62535725	     -2.65861994	      2.33150214	      0.66017847	      1.01783098	     -0.20758655	    -10.04083114	    -12.39503328	      8.19120420	    -60.86418065	    -14.21767193	     23.77265164	     69.18197599	    -13.64111632	    -16.39930879	      5.24671451	    -55.37774233	-961617.21108876	-198313.90263818	  67687.83527196	      0.00000000	      0.00000000	      0.00000000
      3.54000000	     67.48364757	     -2.64078788	      2.26964055	      0.65988610	      1.01783882	     -0.20696177	     -9.87580506	    -12.62742395	      8.24443389	    -61.11083008	    -14.23147722	     23.68071272	     69.27200962	    -13.38133492	    -16.49030132	      5.27617612	    -55.09312939	-1016345.75378015	-224827.19657617	  82610.93728792	      0.00000000	      0.00000000	      0.00000000
      3.55000000	     67.38112543	     -2.61470725	      2.31358221	      0.65911478	      1.01771157	     -0.20748488	     -9.79776416	    -12.78025437	      8.19437987	    -61.28489991	    -14.24004550	     23.61338150	     69.34521167	    -13.07218755	    -16.51612788	      5.05332231	    -55.06650924	-1072551.76893743	-252162.05062866	  98040.08612310	      0.00000000	      0.00000000	      0.00000000
      3.56000000	     67.34584161	     -2.60341901	      2.45349745	      0.65894480	      1.01739177	     -0.20894633	     -9.81481063	    -12.78541076	      8.05571072	    -61.41064080	    -14.24066771	     23.56844003	     69.40365890	    -12.72626631	    -16.46192603	      4.58613506	    -55.23565724	-1130251.97176698	-280326.11558475	 113991.11321507	      0.00000000	      0.00000000	      0.00000000
      3.57000000	     67.36013985	     -2.64842905	      2.68972505	      0.65941113	      1.01729039	     -0.20952659	     -9.89897308	    -12.61197785	      7.86723974	    -61.51765207	    -14.23083551	     23.54183662	     69.45012194	    -12.40549213	    -16.33484384	      3.98940775	    -55.48334228	-1189463.48059183	-309327.05947971	 130480.03767996	      0.00000000	      0.00000000	      0.00000000
      3.58000000	     67.38679831	     -2.74592743	      2.97284208	      0.65966269	      1.01819739	     -0.20831585	     -9.99475541	    -12.30600995	      7.68717477	    -61.62763927	    -14.20969208	     23.52794035	     69.48706683	    -12.19337430	    -16.23119525	      3.48979105	    -55.65966850	-1250203.79481458	-339172.52310692	 147522.61525850	      0.00000000	      0.00000000	      0.00000000
      3.59000000	     67.41546812	     -2.84493049	      3.18859339	      0.65929440	      1.01929433	     -0.20645191	    -10.05256005	    -11.98458927	      7.57169432	    -61.74617791	    -14.17993091	     23.52115135	     69.51558818	    -12.13190616	    -16.30453654	      3.34522326	    -55.61572201	-1312490.72887053	-369870.15136660	 165133.95064210	      0.00000000	      0.00000000	      0.00000000
      3.60000000	     67.48184637	     -2.89718757	      3.22214417	      0.65868910	      1.01885974	     -0.20559965	    -10.06398411	    -11.76747191	      7.54176992	    -61.85845839	    -14.14900160	     23.51872709	     69.53465722	    -12.18194765	    -16.62853062	      3.69626822	    -55.29124183	-1376342.29321120	-401427.69787743	 183328.20676358	      0.00000000	      0.00000000	      0.00000000
      3.61000000	     67.63625594	     -2.89451626	      3.04843964	      0.65856323	      1.01689058	     -0.20626334	    -10.06590737	    -11.69724511	      7.56187741	    -61.92725178	    -14.12801153	     23.52279084	     69.54103074	    -12.25423490	    -17.08373174	      4.45436835	    -54.80948636	-1441776.52331356	-433853.16904294	 202118.42112211	      0.00000000	      0.00000000	      0.00000000
